# xmcd
#
# Track frame offsets:
#        150
#        14247
#        30937
#        49132
#        68465
#        88302
#        113115
#        138492
#        160687
#        181295
#        199255
#
# Disc length: 2982 seconds
#
# Revision: 9
# Processed by: cddbd v1.5.2PL0 Copyright (c) Steve Scherf et al.
# Submitted via: jack 3.1.1
#
DISCID=920ba40b
DTITLE=Various Artist - The Alligator Records 20th Anniversary Tour CD1
DYEAR=1993
DGENRE=Blues
TTITLE0=Lil' Ed and the Blues Imperials - Killing Floor
TTITLE1=Lil' Ed and the Blues Imperials - Can't Let These Blues Go
TTITLE2=Lil' Ed and the Blues Imperials - Pride and Joy
TTITLE3=Lil' Ed and the Blues Imperials - Mean Ole Frisco
TTITLE4=Katie Webster - Two Fisted Mama
TTITLE5=Katie Webster - Pussycat Moan
TTITLE6=Katie Webster - Lord, I Wonder
TTITLE7=Elvin Bishop - Stealin' Watermelons
TTITLE8=Elvin Bishop - Beer Drinking Woman
TTITLE9=Elvin Bishop - My Dog
TTITLE10=Elvin Bishop - El-Bo
EXTD=LABEL =Alligator Records and Artist Mgmt., Inc.\nID =ALCD107/108\n
EXTD=UPC =014551-1078-28\nCOPYRIGHT =1993\n*****\n2-disc set: AD2 10
EXTD=78
EXTT0=Lil' Ed and The Blues Imperials
EXTT1=Lil' Ed and The Blues Imperials
EXTT2=Lil' Ed and The Blues Imperials
EXTT3=Lil' Ed and The Blues Imperials
EXTT4=Katie Webster
EXTT5=Katie Webster
EXTT6=Katie Webster
EXTT7=Elvin Bishop
EXTT8=Elvin Bishop
EXTT9=Elvin Bishop
EXTT10=Elvin Bishop
PLAYORDER=
